<?xml version="1.0" encoding="utf-8"?>
<!-- Generator: Adobe Illustrator 26.0.0, SVG Export Plug-In . SVG Version: 6.00 Build 0)  -->
<svg version="1.1" id="Layer_1" xmlns="http://www.w3.org/2000/svg" xmlns:xlink="http://www.w3.org/1999/xlink" x="0px" y="0px"
	 viewBox="0 0 63.7 57.1" style="enable-background:new 0 0 63.7 57.1;" xml:space="preserve">
<style type="text/css">
	.st0{fill:#71BF44;stroke:#71BF44;stroke-width:8;stroke-miterlimit:10;}
</style>
<path class="st0" d="M6.3,26.6c0.1-0.2,0.2-0.4,0.3-0.6c0.5-1.1,1.2-1.7,2.3-1.8c0.2,0,0.5,0,0.7,0c10.9,0,21.9,0,32.8,0
	c0.2,0,0.4,0,0.7,0c-0.2-0.2-0.3-0.4-0.4-0.5c-3.4-3.8-6.7-7.6-10.1-11.4c-1.1-1.2-1.4-2.8-0.6-4c0.7-1.1,1.7-2.1,2.7-3
	c0.9-0.8,2.3-0.6,3.2,0.3C38,5.7,38.1,5.8,38.3,6c6,6.7,12,13.5,18,20.2c1.1,1.2,1.3,2.7,0.6,4c-0.2,0.3-0.4,0.6-0.6,0.8
	c-6,6.7-12,13.5-18,20.2c-1.4,1.5-3,1.5-4.3,0c-0.4-0.5-0.9-1-1.3-1.5c-1.3-1.5-1.3-3.3,0-4.8c3.4-3.8,6.8-7.6,10.2-11.4
	c0.1-0.1,0.2-0.3,0.4-0.5c-0.3,0-0.5,0-0.7,0c-10.9,0-21.8,0-32.6,0c-2.2,0-2.8-0.4-3.6-2.7C6.3,29.1,6.3,27.9,6.3,26.6z"/>
</svg>
