<?xml version="1.0" encoding="utf-8"?>
<!-- Generator: Adobe Illustrator 26.0.0, SVG Export Plug-In . SVG Version: 6.00 Build 0)  -->
<svg version="1.1" id="Layer_1" xmlns="http://www.w3.org/2000/svg" xmlns:xlink="http://www.w3.org/1999/xlink" x="0px" y="0px"
	 viewBox="0 0 84.9 1.7" style="enable-background:new 0 0 84.9 1.7;" xml:space="preserve">
<style type="text/css">
	.st0{fill:#E44145;}
</style>
<g>
	<path class="st0" d="M3.4,0.4v0.8h-3V0.4H3.4z"/>
	<path class="st0" d="M7.1,0.4v0.8h-3V0.4H7.1z"/>
	<path class="st0" d="M10.8,0.4v0.8h-3V0.4H10.8z"/>
	<path class="st0" d="M14.4,0.4v0.8h-3V0.4H14.4z"/>
	<path class="st0" d="M18.1,0.4v0.8h-3V0.4H18.1z"/>
	<path class="st0" d="M21.8,0.4v0.8h-3V0.4H21.8z"/>
	<path class="st0" d="M25.5,0.4v0.8h-3V0.4H25.5z"/>
	<path class="st0" d="M29.2,0.4v0.8h-3V0.4H29.2z"/>
	<path class="st0" d="M32.9,0.4v0.8h-3V0.4H32.9z"/>
	<path class="st0" d="M36.5,0.4v0.8h-3V0.4H36.5z"/>
	<path class="st0" d="M40.2,0.4v0.8h-3V0.4H40.2z"/>
	<path class="st0" d="M43.9,0.4v0.8h-3V0.4H43.9z"/>
	<path class="st0" d="M47.6,0.4v0.8h-3V0.4H47.6z"/>
	<path class="st0" d="M51.3,0.4v0.8h-3V0.4H51.3z"/>
	<path class="st0" d="M55,0.4v0.8h-3V0.4H55z"/>
	<path class="st0" d="M58.6,0.4v0.8h-3V0.4H58.6z"/>
	<path class="st0" d="M62.3,0.4v0.8h-3V0.4H62.3z"/>
	<path class="st0" d="M66,0.4v0.8h-3V0.4H66z"/>
	<path class="st0" d="M69.7,0.4v0.8h-3V0.4H69.7z"/>
	<path class="st0" d="M73.4,0.4v0.8h-3V0.4H73.4z"/>
	<path class="st0" d="M77.1,0.4v0.8h-3V0.4H77.1z"/>
	<path class="st0" d="M80.8,0.4v0.8h-3V0.4H80.8z"/>
	<path class="st0" d="M84.4,0.4v0.8h-3V0.4H84.4z"/>
</g>
</svg>
