<?xml version="1.0" encoding="utf-8"?>
<!-- Generator: Adobe Illustrator 26.0.0, SVG Export Plug-In . SVG Version: 6.00 Build 0)  -->
<svg version="1.1" id="Layer_1" xmlns="http://www.w3.org/2000/svg" xmlns:xlink="http://www.w3.org/1999/xlink" x="0px" y="0px"
	 viewBox="0 0 1.5 85" style="enable-background:new 0 0 1.5 85;" xml:space="preserve">
<style type="text/css">
	.st0{fill:#E44145;}
</style>
<g>
	<path class="st0" d="M1.2,3.5H0.4v-3h0.8V3.5z"/>
	<path class="st0" d="M1.2,7.1H0.4v-3h0.8V7.1z"/>
	<path class="st0" d="M1.2,10.8H0.4v-3h0.8V10.8z"/>
	<path class="st0" d="M1.2,14.5H0.4v-3h0.8V14.5z"/>
	<path class="st0" d="M1.2,18.2H0.4v-3h0.8V18.2z"/>
	<path class="st0" d="M1.2,21.9H0.4v-3h0.8V21.9z"/>
	<path class="st0" d="M1.2,25.6H0.4v-3h0.8V25.6z"/>
	<path class="st0" d="M1.2,29.2H0.4v-3h0.8V29.2z"/>
	<path class="st0" d="M1.2,32.9H0.4v-3h0.8V32.9z"/>
	<path class="st0" d="M1.2,36.6H0.4v-3h0.8V36.6z"/>
	<path class="st0" d="M1.2,40.3H0.4v-3h0.8V40.3z"/>
	<path class="st0" d="M1.2,44H0.4v-3h0.8V44z"/>
	<path class="st0" d="M1.2,47.7H0.4v-3h0.8V47.7z"/>
	<path class="st0" d="M1.2,51.3H0.4v-3h0.8V51.3z"/>
	<path class="st0" d="M1.2,55H0.4v-3h0.8V55z"/>
	<path class="st0" d="M1.2,58.7H0.4v-3h0.8V58.7z"/>
	<path class="st0" d="M1.2,62.4H0.4v-3h0.8V62.4z"/>
	<path class="st0" d="M1.2,66.1H0.4v-3h0.8V66.1z"/>
	<path class="st0" d="M1.2,69.8H0.4v-3h0.8V69.8z"/>
	<path class="st0" d="M1.2,73.4H0.4v-3h0.8V73.4z"/>
	<path class="st0" d="M1.2,77.1H0.4v-3h0.8V77.1z"/>
	<path class="st0" d="M1.2,80.8H0.4v-3h0.8V80.8z"/>
	<path class="st0" d="M1.2,84.5H0.4v-3h0.8V84.5z"/>
</g>
</svg>
