<?xml version="1.0" encoding="utf-8"?>
<!-- Generator: Adobe Illustrator 26.0.0, SVG Export Plug-In . SVG Version: 6.00 Build 0)  -->
<svg version="1.1" id="Layer_1" xmlns="http://www.w3.org/2000/svg" xmlns:xlink="http://www.w3.org/1999/xlink" x="0px" y="0px"
	 viewBox="0 0 63.7 61.8" style="enable-background:new 0 0 63.7 61.8;" xml:space="preserve">
<style type="text/css">
	.st0{fill:#71BF44;stroke:#71BF44;stroke-width:8;stroke-miterlimit:10;}
</style>
<path class="st0" d="M33.8,5.4c0.2,0.1,0.4,0.2,0.6,0.3c1.1,0.5,1.7,1.2,1.8,2.3c0,0.2,0,0.5,0,0.7c0,10.9,0,21.9,0,32.8
	c0,0.2,0,0.4,0,0.7c0.2-0.2,0.4-0.3,0.5-0.4c3.8-3.4,7.6-6.7,11.4-10.1c1.2-1.1,2.8-1.4,4-0.6c1.1,0.7,2.1,1.7,3,2.7
	c0.8,0.9,0.6,2.3-0.3,3.2c-0.1,0.1-0.2,0.2-0.4,0.4c-6.7,6-13.5,12-20.2,18c-1.2,1.1-2.7,1.3-4,0.6c-0.3-0.2-0.6-0.4-0.8-0.6
	c-6.7-6-13.5-12-20.2-18c-1.5-1.4-1.5-3,0-4.3c0.5-0.4,1-0.9,1.5-1.3c1.5-1.3,3.3-1.3,4.8,0c3.8,3.4,7.6,6.8,11.4,10.2
	c0.1,0.1,0.3,0.2,0.5,0.4c0-0.3,0-0.5,0-0.7c0-10.9,0-21.8,0-32.6c0-2.2,0.4-2.8,2.7-3.6C31.3,5.4,32.5,5.4,33.8,5.4z"/>
</svg>
